<svg xmlns="http://www.w3.org/2000/svg" width="1760" height="1420" viewBox="0 0 1760 1420"><rect width="1760" height="1420" fill="white"/><rect x="1" y="1" width="1758" height="1418" fill="none" stroke="#dce2eb" stroke-width="2"/>
<rect x="1" y="1" width="1758" height="105" rx="0" fill="#203f79" stroke="none" stroke-width="2"/>
<rect x="34" y="34" width="40" height="40" rx="8" fill="#526f9d" stroke="none" stroke-width="2"/>
<text x="96" y="68" fill="white" font-family="Hiragino Sans, sans-serif" font-size="38" font-weight="600" text-anchor="start">ideco-navi — Project  / 使用技術・制作の役割</text>
<rect x="1" y="106" width="1758" height="94" rx="0" fill="#f6f9fc" stroke="none" stroke-width="2"/>
<text x="36" y="159" fill="#202a39" font-family="Hiragino Sans, sans-serif" font-size="28" font-weight="400" text-anchor="start">ガントチャート</text>
<text x="278" y="159" fill="#202a39" font-family="Hiragino Sans, sans-serif" font-size="28" font-weight="400" text-anchor="start">サイト構成</text>
<text x="482" y="159" fill="#203f79" font-family="Hiragino Sans, sans-serif" font-size="28" font-weight="600" text-anchor="start">使用技術・制作の役割</text>
<rect x="464" y="193" width="340" height="6" rx="0" fill="#3070d4" stroke="none" stroke-width="2"/>
<text x="38" y="280" fill="#202a39" font-family="Hiragino Sans, sans-serif" font-size="44" font-weight="600" text-anchor="start">ideco-navi 使用技術・制作の役割</text>
<text x="38" y="330" fill="#6b7485" font-family="Hiragino Sans, sans-serif" font-size="25" font-weight="400" text-anchor="start">企画・設計と確認を自分が担い、Claude CodeなどのAIに実装を指示して制作</text>
<path d="M 749 830 C 731.5 830, 731.5 704, 714 704" fill="none" stroke="#203f79" stroke-width="4"/>
<path d="M 530 704 C 507.0 704, 507.0 434, 484 434" fill="none" stroke="#203f79" stroke-width="3"/>
<rect x="38" y="398" width="446" height="72" rx="24" fill="white" stroke="#203f79" stroke-width="2"/>
<text x="261.0" y="425.55" fill="#202a39" font-family="Hiragino Sans, sans-serif" font-size="23" font-weight="600" text-anchor="middle">企画・要件整理</text>
<text x="261.0" y="458.55" fill="#202a39" font-family="Hiragino Sans, sans-serif" font-size="23" font-weight="600" text-anchor="middle">ターゲット設定・課題設定</text>
<path d="M 530 704 C 507.0 704, 507.0 520, 484 520" fill="none" stroke="#203f79" stroke-width="3"/>
<rect x="38" y="484" width="446" height="72" rx="24" fill="white" stroke="#203f79" stroke-width="2"/>
<text x="261.0" y="511.55" fill="#202a39" font-family="Hiragino Sans, sans-serif" font-size="23" font-weight="600" text-anchor="middle">サイト・コンテンツ構成</text>
<text x="261.0" y="544.55" fill="#202a39" font-family="Hiragino Sans, sans-serif" font-size="23" font-weight="600" text-anchor="middle">UI設計</text>
<path d="M 530 704 C 507.0 704, 507.0 606, 484 606" fill="none" stroke="#203f79" stroke-width="3"/>
<rect x="38" y="570" width="446" height="72" rx="24" fill="white" stroke="#203f79" stroke-width="2"/>
<text x="261.0" y="597.55" fill="#202a39" font-family="Hiragino Sans, sans-serif" font-size="23" font-weight="600" text-anchor="middle">シミュレーションの仕様検討</text>
<text x="261.0" y="630.55" fill="#202a39" font-family="Hiragino Sans, sans-serif" font-size="23" font-weight="600" text-anchor="middle">FAQの内容設計</text>
<path d="M 530 704 C 507.0 704, 507.0 692, 484 692" fill="none" stroke="#203f79" stroke-width="3"/>
<rect x="38" y="656" width="446" height="72" rx="24" fill="white" stroke="#203f79" stroke-width="2"/>
<text x="261.0" y="683.55" fill="#202a39" font-family="Hiragino Sans, sans-serif" font-size="23" font-weight="600" text-anchor="middle">AIへの実装指示</text>
<text x="261.0" y="716.55" fill="#202a39" font-family="Hiragino Sans, sans-serif" font-size="23" font-weight="600" text-anchor="middle">結果の確認・修正指示</text>
<path d="M 530 704 C 507.0 704, 507.0 778, 484 778" fill="none" stroke="#203f79" stroke-width="3"/>
<rect x="38" y="742" width="446" height="72" rx="24" fill="white" stroke="#203f79" stroke-width="2"/>
<text x="261.0" y="769.55" fill="#202a39" font-family="Hiragino Sans, sans-serif" font-size="23" font-weight="600" text-anchor="middle">動作確認</text>
<text x="261.0" y="802.55" fill="#202a39" font-family="Hiragino Sans, sans-serif" font-size="23" font-weight="600" text-anchor="middle">テスト結果の確認</text>
<path d="M 530 704 C 507.0 704, 507.0 864, 484 864" fill="none" stroke="#203f79" stroke-width="3"/>
<rect x="38" y="828" width="446" height="72" rx="24" fill="white" stroke="#203f79" stroke-width="2"/>
<text x="261.0" y="855.55" fill="#202a39" font-family="Hiragino Sans, sans-serif" font-size="23" font-weight="600" text-anchor="middle">Git管理・CI/CD</text>
<text x="261.0" y="888.55" fill="#202a39" font-family="Hiragino Sans, sans-serif" font-size="23" font-weight="600" text-anchor="middle">Vercelへのデプロイ</text>
<path d="M 530 704 C 507.0 704, 507.0 950, 484 950" fill="none" stroke="#203f79" stroke-width="3"/>
<rect x="38" y="914" width="446" height="72" rx="24" fill="white" stroke="#203f79" stroke-width="2"/>
<text x="261.0" y="941.55" fill="#202a39" font-family="Hiragino Sans, sans-serif" font-size="23" font-weight="600" text-anchor="middle">公開後の運用・改善</text>
<text x="261.0" y="974.55" fill="#202a39" font-family="Hiragino Sans, sans-serif" font-size="23" font-weight="600" text-anchor="middle">GA4導入・広告掲載など</text>
<rect x="530" y="654" width="184" height="100" rx="24" fill="#203f79" stroke="#203f79" stroke-width="2"/>
<text x="622.0" y="712.75" fill="white" font-family="Hiragino Sans, sans-serif" font-size="25" font-weight="600" text-anchor="middle">自分の役割</text>
<path d="M 760 926 C 737.0 926, 737.0 1154, 714 1154" fill="none" stroke="#5e8fd1" stroke-width="4"/>
<path d="M 530 1154 C 507.0 1154, 507.0 1074, 484 1074" fill="none" stroke="#5e8fd1" stroke-width="3"/>
<rect x="38" y="1038" width="446" height="72" rx="24" fill="white" stroke="#5e8fd1" stroke-width="2"/>
<text x="261.0" y="1065.55" fill="#202a39" font-family="Hiragino Sans, sans-serif" font-size="23" font-weight="600" text-anchor="middle">React / TypeScriptの実装</text>
<text x="261.0" y="1098.55" fill="#202a39" font-family="Hiragino Sans, sans-serif" font-size="23" font-weight="600" text-anchor="middle">コンポーネント作成・CSS実装</text>
<path d="M 530 1154 C 507.0 1154, 507.0 1160, 484 1160" fill="none" stroke="#5e8fd1" stroke-width="3"/>
<rect x="38" y="1124" width="446" height="72" rx="24" fill="white" stroke="#5e8fd1" stroke-width="2"/>
<text x="261.0" y="1151.55" fill="#202a39" font-family="Hiragino Sans, sans-serif" font-size="23" font-weight="600" text-anchor="middle">フォーム処理</text>
<text x="261.0" y="1184.55" fill="#202a39" font-family="Hiragino Sans, sans-serif" font-size="23" font-weight="600" text-anchor="middle">React Routerの実装</text>
<path d="M 530 1154 C 507.0 1154, 507.0 1246, 484 1246" fill="none" stroke="#5e8fd1" stroke-width="3"/>
<rect x="38" y="1210" width="446" height="72" rx="24" fill="white" stroke="#5e8fd1" stroke-width="2"/>
<text x="261.0" y="1237.55" fill="#202a39" font-family="Hiragino Sans, sans-serif" font-size="23" font-weight="600" text-anchor="middle">ビルドエラー等の修正</text>
<text x="261.0" y="1270.55" fill="#202a39" font-family="Hiragino Sans, sans-serif" font-size="23" font-weight="600" text-anchor="middle">テストコード作成</text>
<rect x="530" y="1104" width="184" height="100" rx="24" fill="#5e8fd1" stroke="#5e8fd1" stroke-width="2"/>
<text x="622.0" y="1146.15" fill="white" font-family="Hiragino Sans, sans-serif" font-size="19" font-weight="600" text-anchor="middle">AIの役割</text>
<text x="622.0" y="1175.15" fill="white" font-family="Hiragino Sans, sans-serif" font-size="19" font-weight="600" text-anchor="middle">Claude Code等</text>
<path d="M 1010 850 C 1029.0 850, 1029.0 462, 1048 462" fill="none" stroke="#3070d4" stroke-width="4"/>
<path d="M 1258 462 C 1276.0 462, 1276.0 462, 1294 462" fill="none" stroke="#3070d4" stroke-width="3"/>
<rect x="1048" y="422" width="210" height="80" rx="24" fill="#3070d4" stroke="#3070d4" stroke-width="2"/>
<text x="1153.0" y="469.7" fill="white" font-family="Hiragino Sans, sans-serif" font-size="22" font-weight="600" text-anchor="middle">フロントエンド</text>
<rect x="1294" y="408" width="428" height="108" rx="24" fill="white" stroke="#3070d4" stroke-width="2"/>
<text x="1508.0" y="439.0" fill="#202a39" font-family="Hiragino Sans, sans-serif" font-size="20" font-weight="600" text-anchor="middle">React / TypeScript / JavaScript</text>
<text x="1508.0" y="469.0" fill="#202a39" font-family="Hiragino Sans, sans-serif" font-size="20" font-weight="600" text-anchor="middle">HTML / CSS / Tailwind CSS</text>
<text x="1508.0" y="499.0" fill="#202a39" font-family="Hiragino Sans, sans-serif" font-size="20" font-weight="600" text-anchor="middle">React Router</text>
<path d="M 1010 850 C 1029.0 850, 1029.0 617, 1048 617" fill="none" stroke="#3070d4" stroke-width="4"/>
<path d="M 1258 617 C 1276.0 617, 1276.0 617, 1294 617" fill="none" stroke="#3070d4" stroke-width="3"/>
<rect x="1048" y="577" width="210" height="80" rx="24" fill="#3070d4" stroke="#3070d4" stroke-width="2"/>
<text x="1153.0" y="624.7" fill="white" font-family="Hiragino Sans, sans-serif" font-size="22" font-weight="600" text-anchor="middle">CMS</text>
<rect x="1294" y="563" width="428" height="108" rx="24" fill="white" stroke="#3070d4" stroke-width="2"/>
<text x="1508.0" y="594.0" fill="#202a39" font-family="Hiragino Sans, sans-serif" font-size="20" font-weight="600" text-anchor="middle">microCMS / microcms-js-sdk</text>
<text x="1508.0" y="624.0" fill="#202a39" font-family="Hiragino Sans, sans-serif" font-size="20" font-weight="600" text-anchor="middle">サーバー側の /api/faqs 経由で取得</text>
<text x="1508.0" y="654.0" fill="#202a39" font-family="Hiragino Sans, sans-serif" font-size="20" font-weight="600" text-anchor="middle">APIキーを公開しない</text>
<path d="M 1010 850 C 1029.0 850, 1029.0 772, 1048 772" fill="none" stroke="#3070d4" stroke-width="4"/>
<path d="M 1258 772 C 1276.0 772, 1276.0 772, 1294 772" fill="none" stroke="#3070d4" stroke-width="3"/>
<rect x="1048" y="732" width="210" height="80" rx="24" fill="#3070d4" stroke="#3070d4" stroke-width="2"/>
<text x="1153.0" y="779.7" fill="white" font-family="Hiragino Sans, sans-serif" font-size="22" font-weight="600" text-anchor="middle">テスト・品質</text>
<rect x="1294" y="718" width="428" height="108" rx="24" fill="white" stroke="#3070d4" stroke-width="2"/>
<text x="1508.0" y="749.0" fill="#202a39" font-family="Hiragino Sans, sans-serif" font-size="20" font-weight="600" text-anchor="middle">Vitest / React Testing Library</text>
<text x="1508.0" y="779.0" fill="#202a39" font-family="Hiragino Sans, sans-serif" font-size="20" font-weight="600" text-anchor="middle">計算ロジック・バリデーション・UI</text>
<text x="1508.0" y="809.0" fill="#202a39" font-family="Hiragino Sans, sans-serif" font-size="20" font-weight="600" text-anchor="middle">ESLint / Prettier</text>
<path d="M 1010 850 C 1029.0 850, 1029.0 927, 1048 927" fill="none" stroke="#5e8fd1" stroke-width="4"/>
<path d="M 1258 927 C 1276.0 927, 1276.0 927, 1294 927" fill="none" stroke="#5e8fd1" stroke-width="3"/>
<rect x="1048" y="887" width="210" height="80" rx="24" fill="#5e8fd1" stroke="#5e8fd1" stroke-width="2"/>
<text x="1153.0" y="934.7" fill="white" font-family="Hiragino Sans, sans-serif" font-size="22" font-weight="600" text-anchor="middle">CI/CD・公開</text>
<rect x="1294" y="873" width="428" height="108" rx="24" fill="white" stroke="#5e8fd1" stroke-width="2"/>
<text x="1508.0" y="919.0" fill="#202a39" font-family="Hiragino Sans, sans-serif" font-size="20" font-weight="600" text-anchor="middle">GitHub Actions / Vercel</text>
<text x="1508.0" y="949.0" fill="#202a39" font-family="Hiragino Sans, sans-serif" font-size="20" font-weight="600" text-anchor="middle">lint・test・buildを自動実行</text>
<path d="M 1010 850 C 1029.0 850, 1029.0 1082, 1048 1082" fill="none" stroke="#5e8fd1" stroke-width="4"/>
<path d="M 1258 1082 C 1276.0 1082, 1276.0 1082, 1294 1082" fill="none" stroke="#5e8fd1" stroke-width="3"/>
<rect x="1048" y="1042" width="210" height="80" rx="24" fill="#5e8fd1" stroke="#5e8fd1" stroke-width="2"/>
<text x="1153.0" y="1089.7" fill="white" font-family="Hiragino Sans, sans-serif" font-size="22" font-weight="600" text-anchor="middle">アクセス解析</text>
<rect x="1294" y="1028" width="428" height="108" rx="24" fill="white" stroke="#5e8fd1" stroke-width="2"/>
<text x="1508.0" y="1089.0" fill="#202a39" font-family="Hiragino Sans, sans-serif" font-size="20" font-weight="600" text-anchor="middle">GA4</text>
<path d="M 1010 850 C 1029.0 850, 1029.0 1237, 1048 1237" fill="none" stroke="#5e8fd1" stroke-width="4"/>
<path d="M 1258 1237 C 1276.0 1237, 1276.0 1237, 1294 1237" fill="none" stroke="#5e8fd1" stroke-width="3"/>
<rect x="1048" y="1197" width="210" height="80" rx="24" fill="#5e8fd1" stroke="#5e8fd1" stroke-width="2"/>
<text x="1153.0" y="1244.7" fill="white" font-family="Hiragino Sans, sans-serif" font-size="22" font-weight="600" text-anchor="middle">開発環境</text>
<rect x="1294" y="1183" width="428" height="108" rx="24" fill="white" stroke="#5e8fd1" stroke-width="2"/>
<text x="1508.0" y="1244.0" fill="#202a39" font-family="Hiragino Sans, sans-serif" font-size="20" font-weight="600" text-anchor="middle">Vite / Git / GitHub</text>
<circle cx="870" cy="850" r="146" fill="#203f79" stroke="#e9f0fe" stroke-width="12"/>
<text x="870" y="814" fill="white" font-family="Hiragino Sans, sans-serif" font-size="30" font-weight="600" text-anchor="middle">ideco-navi</text>
<text x="870" y="854" fill="white" font-family="Hiragino Sans, sans-serif" font-size="30" font-weight="600" text-anchor="middle">使用技術と</text>
<text x="870" y="894" fill="white" font-family="Hiragino Sans, sans-serif" font-size="30" font-weight="600" text-anchor="middle">制作の役割</text>
<text x="38" y="1375" fill="#6b7485" font-family="Hiragino Sans, sans-serif" font-size="23" font-weight="400" text-anchor="start">自分：企画・設計・確認・公開後の運用　／　AI：指示にもとづく実装・修正・テストコード作成</text>
</svg>